<svg xmlns="http://www.w3.org/2000/svg" viewBox="0 0 64 64" fill="#2E7D6B">
  <!-- Circle background -->
  <circle cx="32" cy="32" r="30" fill="none" stroke="#2E7D6B" stroke-width="2.5"/>
  <!-- Sparkles -->
  <path d="M16 12l2 4 4 2-4 2-2 4-2-4-4-2 4-2z" opacity=".6"/>
  <path d="M46 16l1.2 2.4 2.4 1.2-2.4 1.2-1.2 2.4-1.2-2.4-2.4-1.2 2.4-1.2z" opacity=".4"/>
  <!-- Shield/Hand -->
  <path d="M32 14s-12 5-12 20c0 9 4 15 8 19l4 3 4-3c4-4 8-10 8-19 0-15-12-20-12-20zm0 5s9 4 9 15c0 7-3 12-6 15l-3 2.5-3-2.5c-3-3-6-8-6-15 0-11 9-15 9-15z" opacity=".85"/>
  <path d="M28 30s-.5 2.5-.5 5c0 3.5 2 6 4.5 8 2.5-2 4.5-4.5 4.5-8 0-2.5-.5-5-.5-5h-2.5s.4 2 .4 4c0 2.5-1.2 4-2.4 5.2-1.2-1.2-2.4-2.7-2.4-5.2 0-2 .4-4 .4-4H28z"/>
</svg>
