<svg xmlns="http://www.w3.org/2000/svg" viewBox="0 0 320 72" fill="#2E7D6B">
  <!-- Sparkle top-left -->
  <path d="M8 8l2.5 5 5 2.5-5 2.5-2.5 5-2.5-5-5-2.5 5-2.5z" opacity=".7"/>
  <!-- Sparkle small -->
  <path d="M4 22l1.5 3 3 1.5-3 1.5-1.5 3-1.5-3-3-1.5 3-1.5z" opacity=".45"/>

  <!-- Hand/Shield Icon -->
  <path d="M32 6C32 6 22 10 22 24c0 8 3 14 7 18 2.5 2.5 5 4 5 4s2.5-1.5 5-4c4-4 7-10 7-18C46 10 36 6 32 6zm0 4c0 0 8 3 8 14 0 6-2.5 10.5-5 13.5L32 40l-3-2.5c-2.5-3-5-7.5-5-13.5 0-11 8-14 8-14z" opacity=".85"/>
  <!-- Hand inside shield -->
  <path d="M28 22c0 0-.5 2-.5 4 0 3 1.5 5 4.5 7 3-2 4.5-4 4.5-7 0-2-.5-4-.5-4h-2c0 0 .3 1.5.3 3 0 2-1 3.5-2.3 4.5-1.3-1-2.3-2.5-2.3-4.5 0-1.5.3-3 .3-3h-2z"/>

  <!-- Sparkle right of icon -->
  <path d="M50 14l1.5 3 3 1.5-3 1.5-1.5 3-1.5-3-3-1.5 3-1.5z" opacity=".5"/>

  <!-- "Fleckfrei.de" text -->
  <text x="60" y="32" font-family="Inter,'Segoe UI',system-ui,sans-serif" font-weight="700" font-size="24" letter-spacing="-0.3" fill="#2E7D6B">Fleckfrei.de</text>

  <!-- "Saubergedacht" text -->
  <text x="60" y="54" font-family="Inter,'Segoe UI',system-ui,sans-serif" font-weight="600" font-size="18" letter-spacing="0.2" fill="#2E7D6B" opacity=".75">Saubergedacht</text>
</svg>
