<svg id="Layer_1" data-name="Layer 1" xmlns="http://www.w3.org/2000/svg" viewBox="0 0 3000 1000"><defs><style>.cls-1{fill:#fff;}</style></defs><rect class="cls-1" width="3000" height="1000"/><polygon class="cls-1" points="133.61 59.34 169.86 124.11 234.09 158.37 171.63 195.97 138.59 262.57 102.34 197.8 38.12 163.54 100.58 125.94 133.61 59.34"/><polygon class="cls-1" points="84.22 351.59 106.72 391.78 146.57 413.04 107.81 436.37 87.32 477.7 64.82 437.5 24.97 416.25 63.73 392.92 84.22 351.59"/><path class="cls-1" d="M298.54,829.22c-9.08-46.59-13.77-92-69.81-123.22,0,0-43.08-23.43-52.63-37.42-10.2-12.3-39.36-73-40.33-105.18-.34-11.28,2-22.61,5.18-39.11,6.52-33.74,16.65-76.34,21.87-116.64,7.77-60,15.06-106.53,28.66-130.13s34.66-27.31,34.66-27.31,23.32-6.74,73.85-10.79,84.87-12.13,134.1-44.5L462,174l12.31-8.09s9.71-9.44,26.56,5.4c0,0,40.81,35.06,53.77,39.78,0,0,34.33,23.59,82.27,18.87s49.88,14.84,49.88,14.84,4.53,8.09-3.24,41.8c0,0-.65,37.09,8.42,43.15,0,0,51.83,68.78,48.59,142.27,0,0-1.94,14.57-6.48,26.5,0,0-21.38,34.18-24.62,86.77,0,0-4.53,64.06-2.59,68.78s-6.48,40.45-36.92,77.54c0,0-30.45,21.57-35.63,71.47L633,824s1.94,28.32-24,45.85c0,0-20.08,12.81-43.4,11.46l-184,.1S305.66,865.8,298.54,829.22Z"/><path class="cls-1" d="M428.83,358a35.56,35.56,0,0,0-35.45,30,36.15,36.15,0,0,0-28.33-13.67c-19.85,0-36,15.67-36,35v55.55l0,.13c-8.71-7.06-21.53-7.44-27,.4-7.17,10.23-19.75,29.26-19.75,72.4,0,90.41,74,143.49,74,234.84h184c0-40.63,51.87-94.56,51.87-162.36V539.16c0-.46.14-.89.14-1.36V450.69c0-19.31-16.1-35-36-35a36.14,36.14,0,0,0-27.81,13.06v-4.08c0-19.32-16.1-35-36-35a36.12,36.12,0,0,0-27.82,13.07V393C464.79,373.69,448.68,358,428.83,358Z"/><path class="cls-1" d="M547.4,772.64a13.27,13.27,0,0,1,13.45,13.09v7.44a13.27,13.27,0,0,1-13.45,13.09H351.57a13.27,13.27,0,0,1-13.44-13.09v-7.44a13.27,13.27,0,0,1,13.44-13.09Z"/><path class="cls-1" d="M1212,281.05h-72.43v61h66.56v45.38h-66.56v96.46h-46.24V235.5H1212Z"/><path class="cls-1" d="M1286.52,483.85h-45.23V221.3h45.23Z"/><path class="cls-1" d="M1456.29,410.77h-95.62q2.3,38.61,40.22,38.62,24.19,0,42.52-13.86V475q-20.33,13.16-52.82,13.16-35.5,0-55.11-23.82T1315.87,398q0-44.16,21.18-70t52.11-25.8q32.05,0,49.6,23t17.53,62.52Zm-41.94-33.6q0-38.1-25.48-38.1-10.87,0-18.82,10.91t-9.67,27.19Z"/><path class="cls-1" d="M1594.28,477.44q-15.33,10.74-44.23,10.74-33.79,0-54.68-24.76t-20.9-63.91q0-45.21,22.4-71.27t59.9-26.06q25.9,0,37.51,8.31v46.42q-14.17-12.82-31.64-12.82-19.46,0-30.84,13.77t-11.38,38q0,23.55,10.87,37t29.92,13.43q16.89,0,33.07-12.82Z"/><path class="cls-1" d="M1770.77,483.85h-54.25l-46.81-88h-.57v88h-45.23V221.3h45.23V388.43h.57l43.66-81.92h53.68l-52.53,83.3Z"/><path class="cls-1" d="M1883.43,263.21a39,39,0,0,0-16.76-4.16q-21.75,0-21.76,28.58v18.88h33.5v40.35h-33.5v137h-45.08v-137h-24.62V306.51h24.62v-22q0-30.3,16.32-48.84t44.37-18.53q13.74,0,22.91,3.47Z"/><path class="cls-1" d="M1995.78,355.87a33.81,33.81,0,0,0-19-5.37q-14.74,0-23,13.07t-8.3,35.59v84.69h-45.23V306.51h45.23v32.9h.57q10.74-36,38.65-36,7.17,0,11.16,2.08Z"/><path class="cls-1" d="M2144.66,410.77H2049q2.29,38.61,40.23,38.62,24.18,0,42.51-13.86V475q-20.31,13.16-52.82,13.16-35.5,0-55.11-23.82T2004.24,398q0-44.16,21.18-70t52.1-25.8q32.05,0,49.6,23t17.54,62.52Zm-41.94-33.6q0-38.1-25.48-38.1-10.89,0-18.82,10.91t-9.67,27.19Z"/><path class="cls-1" d="M2194.48,278.45a23.93,23.93,0,0,1-18.76-8.22q-7.3-8.24-7.31-20.18,0-12.3,7.31-20.09t18.76-7.79c7.71,0,14,2.59,18.82,7.79s7.21,11.89,7.21,20.09-2.4,15.13-7.21,20.43S2202.19,278.45,2194.48,278.45Zm22.33,205.4h-45.24V306.51h45.24Z"/><path class="cls-1" d="M2275.06,488.18a24,24,0,0,1-18.61-8.31q-7.45-8.31-7.44-20.44,0-12.46,7.65-20.43a25.42,25.42,0,0,1,19.11-8q11.61,0,19,8.05t7.36,20.35q0,12.65-7.5,20.7T2275.06,488.18Z"/><path class="cls-1" d="M2477.74,483.85h-45.23V459.43h-.57q-15.46,28.76-45.37,28.75-27.48,0-44.22-23.47t-16.76-65.55q0-44,18.47-70.48t48.37-26.5q28.35,0,39.51,24.59h.57V221.3h45.23Zm-44.36-86.25V384.27q0-17.31-8.31-28.75t-21.61-11.43q-15,0-23.47,14.28t-8.44,39.23q0,23.38,8.15,36t22.62,12.64q13.74,0,22.4-13.34T2433.38,397.6Z"/><path class="cls-1" d="M2647.52,410.77H2551.9q2.28,38.61,40.22,38.62,24.2,0,42.51-13.86V475q-20.33,13.16-52.82,13.16-35.49,0-55.1-23.82T2507.09,398q0-44.16,21.19-70t52.1-25.8q32.05,0,49.6,23t17.54,62.52Zm-41.95-33.6q0-38.1-25.47-38.1-10.89,0-18.82,10.91t-9.68,27.19Z"/><path class="cls-1" d="M736.39,799.63V739.39A93,93,0,0,0,765.79,760a79.71,79.71,0,0,0,32.05,6.89,59.4,59.4,0,0,0,16.58-2.08,35.79,35.79,0,0,0,11.82-5.74,23.55,23.55,0,0,0,7.08-8.66,25.35,25.35,0,0,0,2.33-10.83,26.8,26.8,0,0,0-3.73-14.11A44.34,44.34,0,0,0,821.72,714a102.53,102.53,0,0,0-15.32-10.16q-8.86-4.91-19.14-10-26.13-13.2-39-32.2t-12.84-45.93q0-21.09,7-36.24a68.61,68.61,0,0,1,19.07-24.94,78.63,78.63,0,0,1,27.92-14.41,120,120,0,0,1,33.61-4.61,167.36,167.36,0,0,1,30.89,2.55,104.75,104.75,0,0,1,24.81,7.8v56.29a73.05,73.05,0,0,0-12.22-8.28A88.07,88.07,0,0,0,839,584.47a81.14,81.14,0,0,0-13.15-1.13,57.5,57.5,0,0,0-15.56,2,36.39,36.39,0,0,0-11.82,5.56,25.29,25.29,0,0,0-7.47,8.57,23.43,23.43,0,0,0-2.65,11.19,24.84,24.84,0,0,0,3,12.15,38.25,38.25,0,0,0,8.4,10.16,87.49,87.49,0,0,0,13.22,9.42q7.79,4.6,17.59,9.5a186.31,186.31,0,0,1,24,14.4,90.57,90.57,0,0,1,18.28,17.22,70.53,70.53,0,0,1,11.66,21.93q4.05,12.33,4,28.71,0,22.59-7.08,37.93a65.85,65.85,0,0,1-19.21,24.85A76,76,0,0,1,834,810.56a136.11,136.11,0,0,1-34,4.13,156.69,156.69,0,0,1-34.93-3.77A92.78,92.78,0,0,1,736.39,799.63Z"/><path class="cls-1" d="M1053,810h-46.52V782.31h-.63q-16,32.38-47.45,32.38-23.19,0-36.49-15.91t-13.3-42.44q0-56.1,54.92-64.75l43.26-7q0-31.62-28.32-31.62-28.47,0-54.14,20.53V628.7q10.26-6.39,28.08-11.3t32.44-4.88q68.14,0,68.15,82.26Zm-46.21-78.31v-13l-28.94,4.52q-24,3.75-24,26.16,0,10.17,5.83,16.66t15.79,6.49q13.85,0,22.56-11.57T1006.8,731.68Z"/><path class="cls-1" d="M1243.28,810h-49V780.62h-.79q-18.2,34.07-48.7,34.07-55.38,0-55.39-81.13V617.22h49V728.29q0,40.85,26.76,40.86,13.21,0,21.16-11.21t7.94-30.41V617.22h49Z"/><path class="cls-1" d="M1334.46,787.58h-.63V810h-49.16V524.6h49.16V646.21h.63q18.22-33.71,51.81-33.69,30.81,0,47.46,25.6t16.65,70q0,48.2-19.46,77.37t-52,29.17Q1349.54,814.69,1334.46,787.58Zm-1.4-81.32V726q0,18.63,8.87,30.87t22.72,12.25q16.81,0,26.06-15.73t9.26-44.51q0-23.92-8.48-37.38t-24.2-13.47q-14.79,0-24.51,13.38T1333.06,706.26Z"/><path class="cls-1" d="M1625.4,730.55H1521.47q2.51,42,43.73,42,26.28,0,46.21-15.06v42.92q-22.11,14.32-57.41,14.31-38.6,0-59.91-25.88t-21.31-72.19q0-48,23-76.06t56.63-28q34.86,0,53.9,25t19.06,68ZM1579.82,694q0-41.41-27.69-41.42-11.82,0-20.46,11.87T1521.17,694Z"/><path class="cls-1" d="M1758.58,670.86A36.81,36.81,0,0,0,1737.9,665q-16,0-25.05,14.21t-9,38.69v92h-49.17V617.22h49.17V653h.62q11.68-39.15,42-39.16,7.77,0,12.12,2.26Z"/><path class="cls-1" d="M1933.46,788q0,53.63-25.66,83.1t-74.37,29.46q-32.22,0-51-11.1V839.35q24.6,17.32,49.63,17.32t38.58-15.9q13.71-15.93,13.7-43.21V782.31h-.63q-16.8,32.38-49.62,32.38-30.49,0-48.38-26t-17.9-69.66q0-48.93,19.91-77.74t52.43-28.8q29.1,0,43.56,27.11h.63V617.22h49.16Zm-48.54-70.6V702.13q0-18.27-8.94-31.16t-23.26-12.91q-16.34,0-25.68,15.46T1817.71,717q0,24.1,8.87,38.12t24.27,14q15.26,0,24.66-14.22T1884.92,717.37Z"/><path class="cls-1" d="M2117.68,730.55H2013.75q2.49,42,43.72,42,26.3,0,46.22-15.06v42.92q-22.11,14.32-57.42,14.31-38.6,0-59.91-25.88t-21.31-72.19q0-48,23-76.06t56.63-28q34.86,0,53.91,25t19.06,68ZM2072.1,694q0-41.41-27.7-41.42-11.82,0-20.46,11.87T2013.45,694Z"/><path class="cls-1" d="M2302.84,810h-49.17V783.45h-.62q-16.8,31.24-49.33,31.24-29.86,0-48.08-25.5t-18.2-71.25q0-47.82,20.07-76.62t52.6-28.8q30.81,0,42.94,26.72h.62V524.6h49.17Zm-48.25-93.75v-14.5q0-18.82-9-31.24t-23.5-12.44q-16.34,0-25.51,15.55t-9.19,42.63q0,25.41,8.88,39.16t24.58,13.75q14.94,0,24.34-14.51T2254.59,716.24Z"/><path class="cls-1" d="M2476.77,810h-46.51V782.31h-.62q-16,32.38-47.46,32.38-23.17,0-36.49-15.91t-13.3-42.44q0-56.1,54.93-64.75l43.25-7q0-31.62-28.32-31.62-28.47,0-54.14,20.53V628.7q10.26-6.39,28.08-11.3t32.45-4.88q68.15,0,68.13,82.26Zm-46.2-78.31v-13l-28.94,4.52q-24,3.75-24,26.16,0,10.17,5.84,16.66t15.79,6.49q13.85,0,22.56-11.57T2430.57,731.68Z"/><path class="cls-1" d="M2636.41,803q-16.63,11.65-48.07,11.66-36.74,0-59.44-26.92t-22.71-69.47q0-49.11,24.34-77.45t65.12-28.33q28.16,0,40.76,9V672q-15.39-13.93-34.38-14-21.17,0-33.54,15t-12.37,41.33q0,25.59,11.83,40.19t32.52,14.6q18.36,0,35.94-13.95Z"/><path class="cls-1" d="M2821.57,810h-49V700.43q0-42.36-25.52-42.37-13.07,0-21.16,11.87t-8.09,30.12V810h-49.16V524.6h49.16V645.84h.63q18-33.33,49-33.32,54.15,0,54.15,79.07Z"/><path class="cls-1" d="M2956.77,807.73q-10.89,7-32.84,7-52,0-51.95-65.32V661.08h-25.84V617.22H2872V575.63l49-17v58.55h35.79v43.86H2921V739q0,30.11,19.75,30.12,7.79,0,16-5.47Z"/></svg>