<svg xmlns="http://www.w3.org/2000/svg" viewBox="700 200 2250 700">
<path d="M1212,281.05h-72.43v61h66.56v45.38h-66.56v96.46h-46.24V235.5H1212Z" fill="#2E7D6B"/>
<path d="M1286.52,483.85h-45.23V221.3h45.23Z" fill="#2E7D6B"/>
<path d="M1456.29,410.77h-95.62q2.3,38.61,40.22,38.62,24.19,0,42.52-13.86V475q-20.33,13.16-52.82,13.16-35.5,0-55.11-23.82T1315.87,398q0-44.16,21.18-70t52.11-25.8q32.05,0,49.6,23t17.53,62.52Zm-41.94-33.6q0-38.1-25.48-38.1-10.87,0-18.82,10.91t-9.67,27.19Z" fill="#2E7D6B"/>
<path d="M1594.28,477.44q-15.33,10.74-44.23,10.74-33.79,0-54.68-24.76t-20.9-63.91q0-45.21,22.4-71.27t59.9-26.06q25.9,0,37.51,8.31v46.42q-14.17-12.82-31.64-12.82-19.46,0-30.84,13.77t-11.38,38q0,23.55,10.87,37t29.92,13.43q16.89,0,33.07-12.82Z" fill="#2E7D6B"/>
<path d="M1770.77,483.85h-54.25l-46.81-88h-.57v88h-45.23V221.3h45.23V388.43h.57l43.66-81.92h53.68l-52.53,83.3Z" fill="#2E7D6B"/>
<path d="M1883.43,263.21a39,39,0,0,0-16.76-4.16q-21.75,0-21.76,28.58v18.88h33.5v40.35h-33.5v137h-45.08v-137h-24.62V306.51h24.62v-22q0-30.3,16.32-48.84t44.37-18.53q13.74,0,22.91,3.47Z" fill="#2E7D6B"/>
<path d="M1995.78,355.87a33.81,33.81,0,0,0-19-5.37q-14.74,0-23,13.07t-8.3,35.59v84.69h-45.23V306.51h45.23v32.9h.57q10.74-36,38.65-36q7.17,0,11.16,2.08Z" fill="#2E7D6B"/>
<path d="M2144.66,410.77H2049q2.29,38.61,40.23,38.62,24.18,0,42.51-13.86V475q-20.31,13.16-52.82,13.16-35.5,0-55.11-23.82T2004.24,398q0-44.16,21.18-70t52.1-25.8q32.05,0,49.6,23t17.54,62.52Zm-41.94-33.6q0-38.1-25.48-38.1-10.89,0-18.82,10.91t-9.67,27.19Z" fill="#2E7D6B"/>
<circle cx="2194.48" cy="250" r="18" fill="#2E7D6B"/>
<rect x="2172" y="306" width="45" height="178" rx="5" fill="#2E7D6B"/>
<circle cx="2275" cy="480" r="22" fill="#2E7D6B"/>
<text x="1139" y="810" font-family="system-ui,sans-serif" font-weight="700" font-size="200" fill="#2E7D6B" letter-spacing="-3">Saubergedacht</text>
</svg>
